# xmcd
# 
# Track frame offsets:
#     150
#     14107
#     29797
#     45202
#     60327
#     79725
#     96262
#     112990
#     125247
#     141065
#     157672
#     178762
# 
# Disc length: 3110
# 
# Revision: 11
# Processed by: cddbd v1.5.2PL0 Copyright (c) Steve Scherf et al.
# Submitted via: BonkEnc v1.0beta4
# 
DISCID=9a0c240c
DTITLE=The Chieftains - Another Country
DYEAR=1992
DGENRE=Folk
TTITLE0=Happy To Meet
TTITLE1=I Can't Stop Loving You
TTITLE2=Wabash Cannonball (Morning Dew - Wabash Cannonball - Father Kelly's Reels)
TTITLE3=Heartbreak Hotel (Heartbreak Hotel - The Cliffs Of Moher Jig)
TTITLE4=Goodnight Irene
TTITLE5=Cunla (Cunla - The Friar's Breeches)
TTITLE6=Nobody's Darlin' But Mine
TTITLE7=Cotton-Eyed Joe
TTITLE8=Tahitian Skies (Tahitian Skies - O'neill's Hornpipe)
TTITLE9=Killybegs
TTITLE10=Paddy's Green Shamrock Shore
TTITLE11=Finale (Did You Ever Go A-Courtin' - Uncle Joe - Will The Circle Be Unbroken)
EXTD=LABEL =BMG Music\nID =09026-60939-2\nUPC =09026-60939-22\nCOPYRIGHT =1992 YEAR: 1992
EXTT0=
EXTT1=
EXTT2=
EXTT3=
EXTT4=
EXTT5=
EXTT6=
EXTT7=
EXTT8=
EXTT9=
EXTT10=
EXTT11=
PLAYORDER=
